<mxfile host="app.diagrams.net" agent="Mozilla/5.0 (X11; Linux x86_64) AppleWebKit/537.36 (KHTML, like Gecko) Chrome/122.0.0.0 Safari/537.36" version="24.7.14">
  <diagram name="Page-1" id="Ee7KlDq49QM1Eyzun8Jc">
    <mxGraphModel dx="224" dy="-486" grid="1" gridSize="10" guides="1" tooltips="1" connect="1" arrows="1" fold="1" page="1" pageScale="1" pageWidth="850" pageHeight="1100" math="0" shadow="0">
      <root>
        <mxCell id="0" />
        <mxCell id="1" parent="0" />
        <mxCell id="YSEVFLiHHC1DsgBtn_8J-13" value="" style="triangle;whiteSpace=wrap;html=1;direction=north;strokeColor=none;fillColor=#76cfd5;rounded=1;arcSize=50;aspect=fixed;" vertex="1" parent="1">
          <mxGeometry x="910" y="1296.52" width="300" height="260" as="geometry" />
        </mxCell>
        <mxCell id="YSEVFLiHHC1DsgBtn_8J-14" value="" style="triangle;whiteSpace=wrap;html=1;direction=north;strokeColor=none;fillColor=#76cfd5;aspect=fixed;rounded=1;arcSize=50;rotation=-180;" vertex="1" parent="1">
          <mxGeometry x="998.75" y="1190" width="122.5" height="106.52" as="geometry" />
        </mxCell>
        <mxCell id="YSEVFLiHHC1DsgBtn_8J-11" value="" style="triangle;whiteSpace=wrap;html=1;direction=north;strokeColor=none;fillColor=default;aspect=fixed;rotation=-180;" vertex="1" parent="1">
          <mxGeometry x="1021.25" y="1201.565" width="77.5" height="67.39" as="geometry" />
        </mxCell>
        <mxCell id="YSEVFLiHHC1DsgBtn_8J-15" value="" style="rounded=0;whiteSpace=wrap;html=1;direction=south;strokeColor=none;fillColor=#76cfd5;" vertex="1" parent="1">
          <mxGeometry x="1030" y="1226.52" width="60" height="190" as="geometry" />
        </mxCell>
        <mxCell id="YSEVFLiHHC1DsgBtn_8J-68" value="" style="rounded=1;whiteSpace=wrap;html=1;direction=south;strokeColor=none;fillColor=#8DF8FF;" vertex="1" parent="1">
          <mxGeometry x="1040" y="1234.52" width="18" height="180" as="geometry" />
        </mxCell>
        <mxCell id="YSEVFLiHHC1DsgBtn_8J-70" value="" style="triangle;whiteSpace=wrap;html=1;direction=north;strokeColor=none;fillColor=#76cfd5;aspect=fixed;" vertex="1" parent="1">
          <mxGeometry x="933.5" y="1321.52" width="253" height="220" as="geometry" />
        </mxCell>
        <mxCell id="YSEVFLiHHC1DsgBtn_8J-12" value="" style="triangle;whiteSpace=wrap;html=1;direction=north;strokeColor=none;fillColor=#000000;aspect=fixed;" vertex="1" parent="1">
          <mxGeometry x="945" y="1336.52" width="230" height="200" as="geometry" />
        </mxCell>
      </root>
    </mxGraphModel>
  </diagram>
</mxfile>
